<?xml version="1.0" encoding="utf-8"?>
<!-- Generator: Adobe Illustrator 25.4.1, SVG Export Plug-In . SVG Version: 6.00 Build 0)  -->
<svg version="1.1" id="Capa_1" xmlns="http://www.w3.org/2000/svg" xmlns:xlink="http://www.w3.org/1999/xlink" x="0px" y="0px"
	 viewBox="0 0 69 76" style="enable-background:new 0 0 69 76;" xml:space="preserve">
<style type="text/css">
	.st0{clip-path:url(#SVGID_00000062897100713265572730000001655048215579467932_);}
	.st1{fill:#FFFFFF;}
</style>
<g>
	<defs>
		<rect id="SVGID_1_" x="6" y="9.4" width="57.2" height="57.5"/>
	</defs>
	<clipPath id="SVGID_00000098200333399014983020000012951585012903544254_">
		<use xlink:href="#SVGID_1_"  style="overflow:visible;"/>
	</clipPath>
	<g style="clip-path:url(#SVGID_00000098200333399014983020000012951585012903544254_);">
		<path class="st1" d="M15.9,13.8c0-1.2,0-2.2,0-3.3c0-0.7,0.3-1.1,1-1.1c0.7,0,0.9,0.5,0.9,1.1c0,1.1,0,2.1,0,3.2h33.7
			c0-1.1,0-2.1,0-3.1c0-0.7,0.2-1.2,1-1.2c0.7,0,0.9,0.6,0.9,1.2c0,1,0,2,0,3.1c0.4,0,0.7,0.1,1,0.1c1.6,0,3.2,0,4.8,0
			c2.4,0,4,1.6,4.1,4c0,0.2,0,0.3,0,0.5c0,14.7,0,29.4,0,44.1c0,0.8-0.1,1.5-0.4,2.2c-0.7,1.5-2,2.3-3.7,2.3c-16.3,0-32.6,0-49,0
			c-2.2,0-3.9-1.6-4-3.8c0-0.3,0-0.7,0-1c0-14.6,0-29.2,0-43.8c0-1.9,0.7-3.4,2.5-4.2c0.6-0.2,1.2-0.3,1.9-0.3
			C12.2,13.7,14,13.8,15.9,13.8z M7.9,28.3c0,0.4-0.1,0.7-0.1,1c0,11,0,22.1,0,33.1c0,1.7,0.8,2.6,2.6,2.6c16.1,0,32.1,0,48.2,0
			c2,0,2.7-0.8,2.7-2.7c0-10.9,0-21.9,0-32.8v-1.1L7.9,28.3z M61.3,26.3c0-3,0-5.8,0-8.7c0-1-0.6-1.9-1.6-1.9c-2.1-0.1-4.2,0-6.5,0
			c0,1.1,0,2.1,0,3.1c0,0.7-0.1,1.3-0.9,1.3c-0.8,0-0.9-0.6-0.9-1.3c0-1,0-2,0-3.1H17.8c0,1.1,0,2,0,3c0,0.6-0.1,1.3-0.9,1.3
			c-0.9,0-1-0.6-1-1.3c0-1,0-2,0-3c-2.2,0-4.2-0.1-6.2,0c-1.1,0-1.8,1-1.8,2.1c0,1.1,0,2.3,0,3.4v5.1H61.3z"/>
		<path class="st1" d="M34.6,61.9h-3.4c-0.8,0-1.2-0.4-1.2-1.2c0-1.5,0-3,0-4.5c0-0.8,0.4-1.2,1.2-1.2c2.2,0,4.5,0,6.7,0
			c0.9,0,1.3,0.4,1.3,1.3c0,1.5,0,2.9,0,4.4c0,0.8-0.4,1.2-1.2,1.2C36.8,61.9,35.7,61.9,34.6,61.9L34.6,61.9z M31.9,57v3h5.4v-3
			H31.9z"/>
		<path class="st1" d="M17,61.9c-1.1,0-2.2,0-3.3,0c-0.8,0-1.2-0.4-1.2-1.2c0-1.5,0-3,0-4.5c0-0.8,0.4-1.2,1.2-1.2
			c2.3,0,4.5,0,6.8,0c0.8,0,1.2,0.4,1.2,1.2c0,1.5,0,3.1,0,4.6c0,0.7-0.4,1.1-1.1,1.1L17,61.9z M14.4,60h5.4V57h-5.4V60z"/>
		<path class="st1" d="M52.2,55.1c1.1,0,2.2,0,3.3,0c0.8,0,1.3,0.3,1.3,1.2c0,1.5,0,3,0,4.5c0,0.9-0.4,1.2-1.2,1.2
			c-2.2,0-4.4,0-6.6,0c-0.9,0-1.3-0.4-1.3-1.3c0-1.4,0-2.9,0-4.3c0-0.9,0.4-1.3,1.3-1.3C49.9,55.1,51,55.1,52.2,55.1L52.2,55.1z
			 M54.8,57h-5.3v3h5.3V57z"/>
		<path class="st1" d="M34.6,50.1c-1.1,0-2.3,0-3.4,0c-0.8,0-1.2-0.4-1.2-1.2c0-1.5,0-3.1,0-4.6c0-0.7,0.4-1.1,1.1-1.1
			c2.3,0,4.7,0,7,0c0.7,0,1.1,0.4,1.1,1.1c0,1.6,0,3.1,0,4.7c0,0.7-0.4,1.1-1.1,1.1L34.6,50.1z M37.3,45.1c-1.7,0-3.3,0-5,0
			c-0.2,0-0.5,0.3-0.5,0.5c-0.1,0.8,0,1.6,0,2.5h5.5V45.1z"/>
		<path class="st1" d="M34.6,38.2c-1.1,0-2.3,0-3.4,0c-0.8,0-1.2-0.4-1.2-1.2v-4.5c0-0.8,0.3-1.2,1.1-1.2c2.3,0,4.6,0,6.9,0
			c0.8,0,1.2,0.4,1.2,1.2c0,1.5,0,3.1,0,4.6c0,0.7-0.4,1.1-1.1,1.1C36.9,38.2,35.7,38.2,34.6,38.2z M37.3,36.3v-3h-5.4v3H37.3z"/>
		<path class="st1" d="M52.2,31.4c1.1,0,2.2,0,3.3,0c0.8,0,1.2,0.4,1.2,1.2c0,1.5,0,3.1,0,4.6c0,0.7-0.4,1.1-1.1,1.1
			c-2.3,0-4.6,0-6.9,0c-0.8,0-1.1-0.4-1.1-1.1c0-1.6,0-3.1,0-4.7c0-0.7,0.4-1,1.1-1C49.8,31.4,51,31.4,52.2,31.4z M54.8,33.3h-5.4v3
			h5.4V33.3z"/>
		<path class="st1" d="M17.2,43.2c1.1,0,2.1,0,3.2,0c0.9,0,1.3,0.4,1.3,1.2c0,1.5,0,2.9,0,4.4c0,0.8-0.4,1.2-1.2,1.2
			c-2.2,0-4.5,0-6.7,0c-0.8,0-1.2-0.3-1.2-1.2c0-1.5,0-3,0-4.5c0-0.8,0.4-1.2,1.3-1.2C14.9,43.2,16,43.2,17.2,43.2z M14.4,48.1h5.4
			v-3h-5.4V48.1z"/>
		<path class="st1" d="M52.1,50.1c-1.1,0-2.2,0-3.3,0c-0.9,0-1.3-0.4-1.3-1.2c0-1.5,0-2.9,0-4.4c0-0.8,0.4-1.2,1.2-1.2
			c2.2,0,4.5,0,6.7,0c0.8,0,1.2,0.4,1.2,1.2c0,1.5,0,3,0,4.5c0,0.8-0.4,1.2-1.2,1.2C54.4,50.1,53.3,50.1,52.1,50.1z M49.5,45.1v3
			h5.3v-3H49.5z"/>
	</g>
</g>
</svg>
