<?xml version="1.0" encoding="utf-8"?>
<!-- Generator: Adobe Illustrator 25.4.1, SVG Export Plug-In . SVG Version: 6.00 Build 0)  -->
<svg version="1.1" id="Capa_1" xmlns="http://www.w3.org/2000/svg" xmlns:xlink="http://www.w3.org/1999/xlink" x="0px" y="0px"
	 viewBox="0 0 69 76" style="enable-background:new 0 0 69 76;" xml:space="preserve">
<style type="text/css">
	.st0{clip-path:url(#SVGID_00000061457183810567129100000018434868965374600873_);}
	.st1{fill:#FFFFFF;}
</style>
<g>
	<defs>
		<rect id="SVGID_1_" x="0.6" y="9.6" width="67.8" height="57.1"/>
	</defs>
	<clipPath id="SVGID_00000146462121980576479250000010352514439090571921_">
		<use xlink:href="#SVGID_1_"  style="overflow:visible;"/>
	</clipPath>
	<g style="clip-path:url(#SVGID_00000146462121980576479250000010352514439090571921_);">
		<path class="st1" d="M65.8,55.7H47.2c0,2.9,0,5.7,0,8.5c0,0.5,0.1,1.1-0.1,1.5c-0.1,0.2-0.3,0.4-0.5,0.6c-0.2,0.2-0.5,0.3-0.7,0.3
			c-0.3,0-0.9-0.6-0.9-1c-0.1-3.7-0.1-7.5,0-11.2c0-0.4,1.2-1.1,1.8-1.1c2.8-0.1,5.6-0.1,8.5-0.1v-8.5H13.7v8.5h7.9
			c2.4,0,2.4,0.1,2.5,2.5c0,2.8,0,5.7,0,8.5c0,1,0.3,2.4-1.2,2.3c-1.3,0-1.1-1.3-1.1-2.3v-8.7H3.1c0,2.5,0,5,0,7.5
			c0,0.8,0.1,1.6-0.1,2.3c-0.1,0.3-0.3,0.5-0.5,0.7c-0.2,0.2-0.5,0.3-0.8,0.4c-0.3,0.1-1-0.7-1.1-1.1c-0.1-3.7-0.1-7.4,0-11
			c0-0.4,1.1-1.1,1.8-1.2c2.8-0.1,5.6-0.1,8.7-0.1c0-2,0-4,0-5.9c0.1-6-0.9-5.3,5.4-5.3c5.5,0,10.9,0,16.7,0v-7.8
			c0-0.6-0.2-1.2,0-1.7c0.2-0.5,0.7-1,1.1-1.4c0.4,0.5,1.1,1,1.1,1.5c0.1,2.4,0.1,4.9,0.1,7.4v2.1H41c4.8,0,9.7,0,14.5,0
			c1.6,0,2.3,0.5,2.3,2.3c-0.1,2.9,0,5.8,0,8.9c2.9,0,5.7,0.1,8.4,0c1.7-0.1,2.3,0.6,2.3,2.3c-0.1,3.1,0,6.2-0.1,9.3
			c0,0.7-0.7,1.3-1.1,1.9c-0.4-0.7-1.2-1.3-1.3-2C65.8,61.8,65.8,58.9,65.8,55.7z"/>
		<path class="st1" d="M46.2,17.9c-0.7,0.8-1,1.3-1.4,1.6c-1.3,1-2.8,1.9-4,3c-0.2,0.2-0.4,0.5-0.5,0.8c-0.1,0.3-0.1,0.6-0.1,1
			c0.4,1.7,1.1,3.3,1.5,5c0.1,0.5,0,1.4-0.4,1.7c-0.4,0.3-1.2,0.1-1.7-0.2c-1.4-0.9-2.8-1.9-4.1-3c-0.9-0.7-1.5-0.7-2.3,0
			c-1.2,1-2.4,1.9-3.7,2.7C29,31,28.2,31,27.5,31.1c-0.1-0.7-0.4-1.4-0.2-2c0.4-1.5,0.9-3,1.4-4.4c0.4-1.1,0.3-1.7-0.7-2.4
			c-1.4-0.9-2.7-1.8-3.9-2.9c-0.2-0.2-0.4-0.5-0.6-0.8c-0.1-0.3-0.2-0.6-0.2-0.9c0-0.3,0.9-0.8,1.5-0.8c2.1-0.2,4.7,0.6,6.2-0.4
			c1.4-0.9,1.4-3.7,2.2-5.6c0.2-0.5,0.9-1.3,1.2-1.2c0.3,0.1,0.6,0.3,0.8,0.5c0.2,0.2,0.4,0.5,0.6,0.8c0.6,1.4,1,2.9,1.4,4.4
			c0.3,1.2,0.8,1.7,2.1,1.6c1.6-0.1,3.2-0.1,4.8,0C44.8,17,45.3,17.5,46.2,17.9z M28.6,19.7c3.7,1.4,3.4,4,2.3,7
			c2.4-2.5,4.7-2,7.3-0.1c-1.7-3.1-1.2-5.4,2.1-7c-3.6,0.8-5.2-0.9-5.9-4.2C34,18.9,32.1,20.2,28.6,19.7L28.6,19.7z"/>
	</g>
</g>
</svg>
