<?xml version="1.0" encoding="utf-8"?>
<!-- Generator: Adobe Illustrator 25.4.1, SVG Export Plug-In . SVG Version: 6.00 Build 0)  -->
<svg version="1.1" id="Capa_1" xmlns="http://www.w3.org/2000/svg" xmlns:xlink="http://www.w3.org/1999/xlink" x="0px" y="0px"
	 viewBox="0 0 68 75" style="enable-background:new 0 0 68 75;" xml:space="preserve">
<style type="text/css">
	.st0{clip-path:url(#SVGID_00000158029725161147432630000006493511090863599013_);}
	.st1{fill:none;stroke:#FFFFFF;stroke-width:2;}
</style>
<g>
	<defs>
		<rect id="SVGID_1_" width="67.4" height="74.6"/>
	</defs>
	<clipPath id="SVGID_00000094582868289856307250000006670959421552797371_">
		<use xlink:href="#SVGID_1_"  style="overflow:visible;"/>
	</clipPath>
	<g style="clip-path:url(#SVGID_00000094582868289856307250000006670959421552797371_);">
		<path class="st1" d="M13.7,8.1l0.3,20.7c0,0,1.6,9.2,6.1,12.5c4.5,3.2,7,5.5,13.4,5.4s12.8-2.9,16.5-8.7s3.1-10.6,3.1-10.6V8.1
			H13.7z"/>
		<path class="st1" d="M54.1,1h-41c-1.3,0-2.3,1.1-2.3,2.3v2c0,1.3,1.1,2.3,2.3,2.3h41c1.3,0,2.4-1.1,2.4-2.3v-2
			C56.4,2.1,55.4,1,54.1,1z"/>
		<path class="st1" d="M53.6,12.2l10.4-1c0,0,2.6,0.3,2.3,2.5s-2.2,8.1-2.2,8.1c-1.1,3.2-2.5,6.2-4.2,9.1c-2.2,3.4-8.1,7.9-8.1,7.9
			l-3.3,1.9l-1.1,0.6"/>
		<path class="st1" d="M13.4,12.1l-9.7-0.9c-0.3,0-0.6,0-0.9,0c-0.3,0.1-0.6,0.2-0.8,0.4c-0.2,0.2-0.5,0.4-0.6,0.7S1.1,13,1,13.3
			c-0.3,2.4,1.5,7.5,1.5,7.5l2.2,5.9c0,0,2.2,5.1,4,6.7c1.8,1.6,7,5.5,7,5.5l3.9,2.3"/>
		<path class="st1" d="M28,46l2.2,7.8c0.5,2.1,0.7,4.2,0.6,6.3c0,4.2-1,5.5-1,5.5c-2,0.6-3.7,1.7-5.2,3.2c-1.9,2.2-2,2.6-2,2.6
			s-0.7,2.3,1.1,2.3c1.8-0.1,19.9,0,19.9,0s1.9-0.8,0.4-2.7c-1-1.3-2.3-2.5-3.6-3.5l-4-2.1c-0.3-1.7-0.4-3.4-0.4-5.1
			c0.1-2.3,0.3-4.7,0.8-6.9c0.5-1.6,2.4-7.1,2.4-7.1"/>
	</g>
</g>
</svg>
